<mxfile host="Electron" modified="2024-07-01T18:50:05.718Z" agent="Mozilla/5.0 (Windows NT 10.0; Win64; x64) AppleWebKit/537.36 (KHTML, like Gecko) draw.io/24.5.3 Chrome/124.0.6367.207 Electron/30.0.6 Safari/537.36" etag="qvZwFp5wuzVkW9vAPGxX" version="24.5.3" type="device">
  <diagram name="Page-1" id="KPQa-vEdHW9zHweUKuwO">
    <mxGraphModel dx="1886" dy="1706" grid="1" gridSize="10" guides="1" tooltips="1" connect="1" arrows="1" fold="1" page="1" pageScale="1" pageWidth="850" pageHeight="1100" math="0" shadow="0">
      <root>
        <mxCell id="0" />
        <mxCell id="1" parent="0" />
        <mxCell id="CVvclLkpXDXN33RaqjkK-5" value="EmployedStudent" style="html=1;dashed=0;whiteSpace=wrap;fillColor=#dae8fc;strokeColor=#6c8ebf;rounded=0;" parent="1" vertex="1">
          <mxGeometry x="90" y="530" width="100" height="50" as="geometry" />
        </mxCell>
        <mxCell id="CVvclLkpXDXN33RaqjkK-6" value="Student" style="html=1;dashed=0;whiteSpace=wrap;fillColor=#dae8fc;strokeColor=#6c8ebf;rounded=0;" parent="1" vertex="1">
          <mxGeometry x="90" y="330" width="100" height="50" as="geometry" />
        </mxCell>
        <mxCell id="CVvclLkpXDXN33RaqjkK-8" value="Exam" style="html=1;dashed=0;whiteSpace=wrap;fillColor=#dae8fc;strokeColor=#6c8ebf;rounded=0;" parent="1" vertex="1">
          <mxGeometry x="400" y="330" width="100" height="50" as="geometry" />
        </mxCell>
        <mxCell id="CVvclLkpXDXN33RaqjkK-9" value="Classroom" style="html=1;dashed=0;whiteSpace=wrap;fillColor=#dae8fc;strokeColor=#6c8ebf;rounded=0;" parent="1" vertex="1">
          <mxGeometry x="400" y="510" width="100" height="50" as="geometry" />
        </mxCell>
        <mxCell id="CVvclLkpXDXN33RaqjkK-10" value="Professor" style="html=1;dashed=0;whiteSpace=wrap;fillColor=#dae8fc;strokeColor=#6c8ebf;rounded=0;" parent="1" vertex="1">
          <mxGeometry x="390" y="190" width="100" height="50" as="geometry" />
        </mxCell>
        <mxCell id="CVvclLkpXDXN33RaqjkK-11" value="UniversityProfessor" style="html=1;dashed=0;whiteSpace=wrap;fillColor=#dae8fc;strokeColor=#6c8ebf;rounded=0;" parent="1" vertex="1">
          <mxGeometry x="305" y="10" width="110" height="50" as="geometry" />
        </mxCell>
        <mxCell id="CVvclLkpXDXN33RaqjkK-12" value="ExternalProfessor" style="html=1;dashed=0;whiteSpace=wrap;fillColor=#dae8fc;strokeColor=#6c8ebf;rounded=0;" parent="1" vertex="1">
          <mxGeometry x="462.5" y="10" width="110" height="50" as="geometry" />
        </mxCell>
        <mxCell id="CVvclLkpXDXN33RaqjkK-13" value="Subject" style="html=1;dashed=0;whiteSpace=wrap;fillColor=#dae8fc;strokeColor=#6c8ebf;rounded=0;" parent="1" vertex="1">
          <mxGeometry x="710" y="330" width="100" height="50" as="geometry" />
        </mxCell>
        <mxCell id="CVvclLkpXDXN33RaqjkK-14" value="ISA-E-S" style="shape=rhombus;html=1;dashed=0;whiteSpace=wrap;perimeter=rhombusPerimeter;fillColor=#ffe6cc;strokeColor=#d79b00;rounded=0;" parent="1" vertex="1">
          <mxGeometry x="110" y="420" width="60" height="50" as="geometry" />
        </mxCell>
        <mxCell id="CVvclLkpXDXN33RaqjkK-15" value="ISA-U-P" style="shape=rhombus;html=1;dashed=0;whiteSpace=wrap;perimeter=rhombusPerimeter;fillColor=#fff2cc;strokeColor=#d6b656;rounded=0;" parent="1" vertex="1">
          <mxGeometry x="330" y="110" width="60" height="50" as="geometry" />
        </mxCell>
        <mxCell id="CVvclLkpXDXN33RaqjkK-16" value="ISA-E-P" style="shape=rhombus;html=1;dashed=0;whiteSpace=wrap;perimeter=rhombusPerimeter;fillColor=#fff2cc;strokeColor=#d6b656;rounded=0;" parent="1" vertex="1">
          <mxGeometry x="487.5" y="110" width="60" height="50" as="geometry" />
        </mxCell>
        <mxCell id="CVvclLkpXDXN33RaqjkK-17" value="Takes" style="shape=rhombus;html=1;dashed=0;whiteSpace=wrap;perimeter=rhombusPerimeter;fillColor=#ffe6cc;strokeColor=#d79b00;rounded=0;" parent="1" vertex="1">
          <mxGeometry x="260" y="330" width="60" height="50" as="geometry" />
        </mxCell>
        <mxCell id="CVvclLkpXDXN33RaqjkK-18" value="HeldsIn" style="shape=rhombus;html=1;dashed=0;whiteSpace=wrap;perimeter=rhombusPerimeter;fillColor=#ffe6cc;strokeColor=#d79b00;rounded=0;" parent="1" vertex="1">
          <mxGeometry x="420" y="420" width="60" height="50" as="geometry" />
        </mxCell>
        <mxCell id="CVvclLkpXDXN33RaqjkK-19" value="Covers" style="shape=rhombus;html=1;dashed=0;whiteSpace=wrap;perimeter=rhombusPerimeter;fillColor=#ffe6cc;strokeColor=#d79b00;rounded=0;" parent="1" vertex="1">
          <mxGeometry x="572.5" y="330" width="60" height="50" as="geometry" />
        </mxCell>
        <mxCell id="CVvclLkpXDXN33RaqjkK-20" value="Hosts" style="shape=rhombus;html=1;dashed=0;whiteSpace=wrap;perimeter=rhombusPerimeter;fillColor=#ffe6cc;strokeColor=#d79b00;rounded=0;" parent="1" vertex="1">
          <mxGeometry x="570" y="510" width="60" height="50" as="geometry" />
        </mxCell>
        <mxCell id="CVvclLkpXDXN33RaqjkK-21" value="" style="endArrow=none;html=1;rounded=0;entryX=0.5;entryY=1;entryDx=0;entryDy=0;exitX=0.5;exitY=0;exitDx=0;exitDy=0;" parent="1" source="CVvclLkpXDXN33RaqjkK-15" target="CVvclLkpXDXN33RaqjkK-11" edge="1">
          <mxGeometry width="50" height="50" relative="1" as="geometry">
            <mxPoint x="280" y="340" as="sourcePoint" />
            <mxPoint x="330" y="290" as="targetPoint" />
          </mxGeometry>
        </mxCell>
        <mxCell id="CVvclLkpXDXN33RaqjkK-22" value="" style="endArrow=none;html=1;rounded=0;entryX=0.5;entryY=1;entryDx=0;entryDy=0;" parent="1" source="CVvclLkpXDXN33RaqjkK-16" target="CVvclLkpXDXN33RaqjkK-12" edge="1">
          <mxGeometry width="50" height="50" relative="1" as="geometry">
            <mxPoint x="280" y="340" as="sourcePoint" />
            <mxPoint x="330" y="290" as="targetPoint" />
          </mxGeometry>
        </mxCell>
        <mxCell id="CVvclLkpXDXN33RaqjkK-23" value="" style="endArrow=none;html=1;rounded=0;entryX=0.5;entryY=1;entryDx=0;entryDy=0;" parent="1" target="CVvclLkpXDXN33RaqjkK-15" edge="1">
          <mxGeometry width="50" height="50" relative="1" as="geometry">
            <mxPoint x="360" y="200" as="sourcePoint" />
            <mxPoint x="330" y="290" as="targetPoint" />
            <Array as="points">
              <mxPoint x="360" y="190" />
            </Array>
          </mxGeometry>
        </mxCell>
        <mxCell id="CVvclLkpXDXN33RaqjkK-46" value="" style="ellipse;shape=doubleEllipse;whiteSpace=wrap;html=1;aspect=fixed;fillColor=#000000;rounded=0;" parent="1" vertex="1">
          <mxGeometry x="372.2" y="80" width="10" height="10" as="geometry" />
        </mxCell>
        <mxCell id="CVvclLkpXDXN33RaqjkK-51" style="edgeStyle=orthogonalEdgeStyle;rounded=0;orthogonalLoop=1;jettySize=auto;html=1;" parent="1" edge="1">
          <mxGeometry relative="1" as="geometry">
            <mxPoint x="490" y="132" as="targetPoint" />
            <mxPoint x="490" y="132" as="sourcePoint" />
          </mxGeometry>
        </mxCell>
        <mxCell id="CVvclLkpXDXN33RaqjkK-50" value="" style="ellipse;whiteSpace=wrap;html=1;aspect=fixed;fillColor=#000000;rounded=0;" parent="1" vertex="1">
          <mxGeometry x="485" y="80" width="10" height="10" as="geometry" />
        </mxCell>
        <mxCell id="CVvclLkpXDXN33RaqjkK-53" value="&lt;b&gt;(1,1)&lt;/b&gt;" style="text;html=1;align=center;verticalAlign=middle;resizable=0;points=[];autosize=1;strokeColor=none;fillColor=none;rounded=0;" parent="1" vertex="1">
          <mxGeometry x="280" y="60" width="50" height="30" as="geometry" />
        </mxCell>
        <mxCell id="CVvclLkpXDXN33RaqjkK-54" value="&lt;b&gt;(1,1)&lt;/b&gt;" style="text;html=1;align=center;verticalAlign=middle;resizable=0;points=[];autosize=1;strokeColor=none;fillColor=none;rounded=0;" parent="1" vertex="1">
          <mxGeometry x="545" y="57.5" width="50" height="30" as="geometry" />
        </mxCell>
        <mxCell id="CVvclLkpXDXN33RaqjkK-55" value="" style="endArrow=none;html=1;rounded=0;" parent="1" edge="1">
          <mxGeometry width="50" height="50" relative="1" as="geometry">
            <mxPoint x="390" y="200" as="sourcePoint" />
            <mxPoint x="360" y="200" as="targetPoint" />
          </mxGeometry>
        </mxCell>
        <mxCell id="CVvclLkpXDXN33RaqjkK-60" value="" style="endArrow=none;html=1;rounded=0;entryX=0.5;entryY=1;entryDx=0;entryDy=0;exitX=0;exitY=0.633;exitDx=0;exitDy=0;exitPerimeter=0;" parent="1" target="CVvclLkpXDXN33RaqjkK-16" edge="1">
          <mxGeometry width="50" height="50" relative="1" as="geometry">
            <mxPoint x="520" y="198.99" as="sourcePoint" />
            <mxPoint x="330" y="290" as="targetPoint" />
          </mxGeometry>
        </mxCell>
        <mxCell id="CVvclLkpXDXN33RaqjkK-61" value="" style="endArrow=none;html=1;rounded=0;entryX=0.016;entryY=0.633;entryDx=0;entryDy=0;entryPerimeter=0;" parent="1" edge="1">
          <mxGeometry width="50" height="50" relative="1" as="geometry">
            <mxPoint x="490" y="199" as="sourcePoint" />
            <mxPoint x="520.8" y="198.99" as="targetPoint" />
          </mxGeometry>
        </mxCell>
        <mxCell id="CVvclLkpXDXN33RaqjkK-62" value="&lt;b&gt;(0,1)&lt;/b&gt;" style="text;html=1;align=center;verticalAlign=middle;resizable=0;points=[];autosize=1;strokeColor=none;fillColor=none;rounded=0;" parent="1" vertex="1">
          <mxGeometry x="317.5" y="180" width="50" height="30" as="geometry" />
        </mxCell>
        <mxCell id="CVvclLkpXDXN33RaqjkK-83" value="" style="endArrow=none;html=1;rounded=0;entryX=0.5;entryY=0;entryDx=0;entryDy=0;exitX=0.5;exitY=1;exitDx=0;exitDy=0;" parent="1" source="CVvclLkpXDXN33RaqjkK-14" target="CVvclLkpXDXN33RaqjkK-5" edge="1">
          <mxGeometry width="50" height="50" relative="1" as="geometry">
            <mxPoint x="280" y="340" as="sourcePoint" />
            <mxPoint x="330" y="290" as="targetPoint" />
          </mxGeometry>
        </mxCell>
        <mxCell id="CVvclLkpXDXN33RaqjkK-84" value="" style="endArrow=none;html=1;rounded=0;exitX=0.5;exitY=0;exitDx=0;exitDy=0;entryX=0.5;entryY=1;entryDx=0;entryDy=0;" parent="1" source="CVvclLkpXDXN33RaqjkK-14" target="CVvclLkpXDXN33RaqjkK-6" edge="1">
          <mxGeometry width="50" height="50" relative="1" as="geometry">
            <mxPoint x="280" y="340" as="sourcePoint" />
            <mxPoint x="330" y="290" as="targetPoint" />
          </mxGeometry>
        </mxCell>
        <mxCell id="CVvclLkpXDXN33RaqjkK-85" value="" style="endArrow=none;html=1;rounded=0;exitX=1;exitY=0.5;exitDx=0;exitDy=0;entryX=0;entryY=0.5;entryDx=0;entryDy=0;" parent="1" source="CVvclLkpXDXN33RaqjkK-6" target="CVvclLkpXDXN33RaqjkK-17" edge="1">
          <mxGeometry width="50" height="50" relative="1" as="geometry">
            <mxPoint x="280" y="340" as="sourcePoint" />
            <mxPoint x="330" y="290" as="targetPoint" />
          </mxGeometry>
        </mxCell>
        <mxCell id="CVvclLkpXDXN33RaqjkK-86" value="" style="endArrow=none;html=1;rounded=0;entryX=0;entryY=0.5;entryDx=0;entryDy=0;exitX=1;exitY=0.5;exitDx=0;exitDy=0;" parent="1" source="CVvclLkpXDXN33RaqjkK-17" target="CVvclLkpXDXN33RaqjkK-8" edge="1">
          <mxGeometry width="50" height="50" relative="1" as="geometry">
            <mxPoint x="280" y="340" as="sourcePoint" />
            <mxPoint x="330" y="290" as="targetPoint" />
          </mxGeometry>
        </mxCell>
        <mxCell id="CVvclLkpXDXN33RaqjkK-87" value="Organized" style="shape=rhombus;html=1;dashed=0;whiteSpace=wrap;perimeter=rhombusPerimeter;fillColor=#ffe6cc;strokeColor=#d79b00;rounded=0;" parent="1" vertex="1">
          <mxGeometry x="405" y="260" width="70" height="50" as="geometry" />
        </mxCell>
        <mxCell id="CVvclLkpXDXN33RaqjkK-88" value="" style="endArrow=none;html=1;rounded=0;entryX=0.5;entryY=1;entryDx=0;entryDy=0;" parent="1" target="CVvclLkpXDXN33RaqjkK-87" edge="1">
          <mxGeometry width="50" height="50" relative="1" as="geometry">
            <mxPoint x="440" y="332" as="sourcePoint" />
            <mxPoint x="330" y="290" as="targetPoint" />
          </mxGeometry>
        </mxCell>
        <mxCell id="CVvclLkpXDXN33RaqjkK-90" value="" style="endArrow=none;html=1;rounded=0;entryX=0.5;entryY=1;entryDx=0;entryDy=0;" parent="1" source="CVvclLkpXDXN33RaqjkK-87" target="CVvclLkpXDXN33RaqjkK-10" edge="1">
          <mxGeometry width="50" height="50" relative="1" as="geometry">
            <mxPoint x="280" y="340" as="sourcePoint" />
            <mxPoint x="330" y="290" as="targetPoint" />
          </mxGeometry>
        </mxCell>
        <mxCell id="CVvclLkpXDXN33RaqjkK-92" value="" style="endArrow=none;html=1;rounded=0;" parent="1" source="reeWS0fUc-oPtJDB1k0_-5" edge="1">
          <mxGeometry width="50" height="50" relative="1" as="geometry">
            <mxPoint x="171.46446609406712" y="478.5355339059329" as="sourcePoint" />
            <mxPoint x="170" y="480" as="targetPoint" />
          </mxGeometry>
        </mxCell>
        <mxCell id="CVvclLkpXDXN33RaqjkK-98" value="&lt;b&gt;(1,1)&lt;/b&gt;" style="text;html=1;align=center;verticalAlign=middle;resizable=0;points=[];autosize=1;strokeColor=none;fillColor=none;rounded=0;" parent="1" vertex="1">
          <mxGeometry x="70" y="492.5" width="50" height="30" as="geometry" />
        </mxCell>
        <mxCell id="CVvclLkpXDXN33RaqjkK-99" value="&lt;b&gt;(0,1)&lt;/b&gt;" style="text;html=1;align=center;verticalAlign=middle;resizable=0;points=[];autosize=1;strokeColor=none;fillColor=none;rounded=0;" parent="1" vertex="1">
          <mxGeometry x="70" y="380" width="50" height="30" as="geometry" />
        </mxCell>
        <mxCell id="CVvclLkpXDXN33RaqjkK-100" value="" style="endArrow=none;html=1;rounded=0;entryX=1;entryY=0.5;entryDx=0;entryDy=0;exitX=0;exitY=0.5;exitDx=0;exitDy=0;" parent="1" source="CVvclLkpXDXN33RaqjkK-19" target="CVvclLkpXDXN33RaqjkK-8" edge="1">
          <mxGeometry width="50" height="50" relative="1" as="geometry">
            <mxPoint x="280" y="340" as="sourcePoint" />
            <mxPoint x="330" y="290" as="targetPoint" />
          </mxGeometry>
        </mxCell>
        <mxCell id="CVvclLkpXDXN33RaqjkK-104" value="" style="endArrow=none;html=1;rounded=0;entryX=0;entryY=0.5;entryDx=0;entryDy=0;exitX=1;exitY=0.5;exitDx=0;exitDy=0;" parent="1" source="CVvclLkpXDXN33RaqjkK-19" target="CVvclLkpXDXN33RaqjkK-13" edge="1">
          <mxGeometry width="50" height="50" relative="1" as="geometry">
            <mxPoint x="280" y="340" as="sourcePoint" />
            <mxPoint x="330" y="290" as="targetPoint" />
          </mxGeometry>
        </mxCell>
        <mxCell id="CVvclLkpXDXN33RaqjkK-105" value="" style="endArrow=none;html=1;rounded=0;entryX=0;entryY=0.5;entryDx=0;entryDy=0;exitX=1;exitY=0.5;exitDx=0;exitDy=0;" parent="1" source="CVvclLkpXDXN33RaqjkK-9" target="CVvclLkpXDXN33RaqjkK-20" edge="1">
          <mxGeometry width="50" height="50" relative="1" as="geometry">
            <mxPoint x="280" y="340" as="sourcePoint" />
            <mxPoint x="330" y="290" as="targetPoint" />
          </mxGeometry>
        </mxCell>
        <mxCell id="CVvclLkpXDXN33RaqjkK-106" value="" style="endArrow=none;html=1;rounded=0;entryX=1;entryY=0.5;entryDx=0;entryDy=0;" parent="1" target="CVvclLkpXDXN33RaqjkK-20" edge="1">
          <mxGeometry width="50" height="50" relative="1" as="geometry">
            <mxPoint x="760" y="535" as="sourcePoint" />
            <mxPoint x="330" y="290" as="targetPoint" />
          </mxGeometry>
        </mxCell>
        <mxCell id="CVvclLkpXDXN33RaqjkK-107" value="" style="endArrow=none;html=1;rounded=0;exitX=0.5;exitY=1;exitDx=0;exitDy=0;" parent="1" source="CVvclLkpXDXN33RaqjkK-13" edge="1">
          <mxGeometry width="50" height="50" relative="1" as="geometry">
            <mxPoint x="280" y="340" as="sourcePoint" />
            <mxPoint x="760" y="540" as="targetPoint" />
          </mxGeometry>
        </mxCell>
        <mxCell id="CVvclLkpXDXN33RaqjkK-109" value="TaughtBy" style="shape=rhombus;html=1;dashed=0;whiteSpace=wrap;perimeter=rhombusPerimeter;fillColor=#ffe6cc;strokeColor=#d79b00;rounded=0;" parent="1" vertex="1">
          <mxGeometry x="562.5" y="260" width="70" height="50" as="geometry" />
        </mxCell>
        <mxCell id="CVvclLkpXDXN33RaqjkK-110" value="HasPhone" style="shape=rhombus;html=1;dashed=0;whiteSpace=wrap;perimeter=rhombusPerimeter;fillColor=#ffe6cc;strokeColor=#d79b00;rounded=0;" parent="1" vertex="1">
          <mxGeometry x="565" y="190" width="75" height="50" as="geometry" />
        </mxCell>
        <mxCell id="CVvclLkpXDXN33RaqjkK-111" value="" style="endArrow=none;html=1;rounded=0;entryX=1;entryY=0.5;entryDx=0;entryDy=0;exitX=0;exitY=0.5;exitDx=0;exitDy=0;" parent="1" source="CVvclLkpXDXN33RaqjkK-110" target="CVvclLkpXDXN33RaqjkK-10" edge="1">
          <mxGeometry width="50" height="50" relative="1" as="geometry">
            <mxPoint x="280" y="340" as="sourcePoint" />
            <mxPoint x="330" y="290" as="targetPoint" />
          </mxGeometry>
        </mxCell>
        <mxCell id="CVvclLkpXDXN33RaqjkK-112" value="Phone" style="html=1;dashed=0;whiteSpace=wrap;fillColor=#dae8fc;strokeColor=#6c8ebf;rounded=0;" parent="1" vertex="1">
          <mxGeometry x="710" y="190" width="100" height="50" as="geometry" />
        </mxCell>
        <mxCell id="CVvclLkpXDXN33RaqjkK-113" value="" style="endArrow=none;html=1;rounded=0;entryX=0;entryY=0.5;entryDx=0;entryDy=0;exitX=1;exitY=0.5;exitDx=0;exitDy=0;" parent="1" source="CVvclLkpXDXN33RaqjkK-110" target="CVvclLkpXDXN33RaqjkK-112" edge="1">
          <mxGeometry width="50" height="50" relative="1" as="geometry">
            <mxPoint x="280" y="340" as="sourcePoint" />
            <mxPoint x="330" y="290" as="targetPoint" />
          </mxGeometry>
        </mxCell>
        <mxCell id="CVvclLkpXDXN33RaqjkK-114" value="" style="endArrow=none;html=1;rounded=0;entryX=1;entryY=0.75;entryDx=0;entryDy=0;" parent="1" target="CVvclLkpXDXN33RaqjkK-10" edge="1">
          <mxGeometry width="50" height="50" relative="1" as="geometry">
            <mxPoint x="520" y="228" as="sourcePoint" />
            <mxPoint x="330" y="290" as="targetPoint" />
          </mxGeometry>
        </mxCell>
        <mxCell id="CVvclLkpXDXN33RaqjkK-115" value="" style="endArrow=none;html=1;rounded=0;" parent="1" edge="1">
          <mxGeometry width="50" height="50" relative="1" as="geometry">
            <mxPoint x="520" y="280" as="sourcePoint" />
            <mxPoint x="520" y="230" as="targetPoint" />
          </mxGeometry>
        </mxCell>
        <mxCell id="CVvclLkpXDXN33RaqjkK-116" value="" style="endArrow=none;html=1;rounded=0;entryX=0;entryY=0.5;entryDx=0;entryDy=0;" parent="1" target="CVvclLkpXDXN33RaqjkK-109" edge="1">
          <mxGeometry width="50" height="50" relative="1" as="geometry">
            <mxPoint x="520" y="285" as="sourcePoint" />
            <mxPoint x="330" y="290" as="targetPoint" />
          </mxGeometry>
        </mxCell>
        <mxCell id="CVvclLkpXDXN33RaqjkK-117" value="" style="endArrow=none;html=1;rounded=0;entryX=1;entryY=0.5;entryDx=0;entryDy=0;" parent="1" target="CVvclLkpXDXN33RaqjkK-109" edge="1">
          <mxGeometry width="50" height="50" relative="1" as="geometry">
            <mxPoint x="760" y="285" as="sourcePoint" />
            <mxPoint x="330" y="290" as="targetPoint" />
          </mxGeometry>
        </mxCell>
        <mxCell id="CVvclLkpXDXN33RaqjkK-118" value="" style="endArrow=none;html=1;rounded=0;exitX=0.5;exitY=0;exitDx=0;exitDy=0;" parent="1" source="CVvclLkpXDXN33RaqjkK-13" edge="1">
          <mxGeometry width="50" height="50" relative="1" as="geometry">
            <mxPoint x="280" y="340" as="sourcePoint" />
            <mxPoint x="760" y="290" as="targetPoint" />
          </mxGeometry>
        </mxCell>
        <mxCell id="CVvclLkpXDXN33RaqjkK-120" value="Mentorship" style="shape=rhombus;html=1;dashed=0;whiteSpace=wrap;perimeter=rhombusPerimeter;fillColor=#ffe6cc;strokeColor=#d79b00;rounded=0;" parent="1" vertex="1">
          <mxGeometry x="250" y="190" width="70" height="50" as="geometry" />
        </mxCell>
        <mxCell id="CVvclLkpXDXN33RaqjkK-121" value="" style="endArrow=none;html=1;rounded=0;entryX=0.5;entryY=0;entryDx=0;entryDy=0;" parent="1" target="CVvclLkpXDXN33RaqjkK-6" edge="1">
          <mxGeometry width="50" height="50" relative="1" as="geometry">
            <mxPoint x="140" y="220" as="sourcePoint" />
            <mxPoint x="330" y="290" as="targetPoint" />
          </mxGeometry>
        </mxCell>
        <mxCell id="CVvclLkpXDXN33RaqjkK-122" value="" style="endArrow=none;html=1;rounded=0;exitX=0;exitY=0.5;exitDx=0;exitDy=0;" parent="1" source="CVvclLkpXDXN33RaqjkK-120" edge="1">
          <mxGeometry width="50" height="50" relative="1" as="geometry">
            <mxPoint x="280" y="340" as="sourcePoint" />
            <mxPoint x="140" y="215" as="targetPoint" />
          </mxGeometry>
        </mxCell>
        <mxCell id="CVvclLkpXDXN33RaqjkK-123" value="" style="endArrow=none;html=1;rounded=0;entryX=1;entryY=0.5;entryDx=0;entryDy=0;exitX=0;exitY=0.5;exitDx=0;exitDy=0;" parent="1" source="CVvclLkpXDXN33RaqjkK-10" target="CVvclLkpXDXN33RaqjkK-120" edge="1">
          <mxGeometry width="50" height="50" relative="1" as="geometry">
            <mxPoint x="280" y="340" as="sourcePoint" />
            <mxPoint x="330" y="290" as="targetPoint" />
          </mxGeometry>
        </mxCell>
        <mxCell id="CVvclLkpXDXN33RaqjkK-124" value="" style="endArrow=none;html=1;rounded=0;entryX=0.5;entryY=0;entryDx=0;entryDy=0;exitX=0.5;exitY=1;exitDx=0;exitDy=0;" parent="1" source="CVvclLkpXDXN33RaqjkK-18" target="CVvclLkpXDXN33RaqjkK-9" edge="1">
          <mxGeometry width="50" height="50" relative="1" as="geometry">
            <mxPoint x="280" y="340" as="sourcePoint" />
            <mxPoint x="330" y="290" as="targetPoint" />
          </mxGeometry>
        </mxCell>
        <mxCell id="CVvclLkpXDXN33RaqjkK-125" value="" style="endArrow=none;html=1;rounded=0;entryX=0.5;entryY=0;entryDx=0;entryDy=0;exitX=0.5;exitY=1;exitDx=0;exitDy=0;" parent="1" source="CVvclLkpXDXN33RaqjkK-8" target="CVvclLkpXDXN33RaqjkK-18" edge="1">
          <mxGeometry width="50" height="50" relative="1" as="geometry">
            <mxPoint x="280" y="340" as="sourcePoint" />
            <mxPoint x="330" y="290" as="targetPoint" />
          </mxGeometry>
        </mxCell>
        <mxCell id="CVvclLkpXDXN33RaqjkK-127" value="&lt;b&gt;(0,1)&lt;/b&gt;" style="text;html=1;align=center;verticalAlign=middle;resizable=0;points=[];autosize=1;strokeColor=none;fillColor=none;rounded=0;" parent="1" vertex="1">
          <mxGeometry x="512.5" y="180" width="50" height="30" as="geometry" />
        </mxCell>
        <mxCell id="CVvclLkpXDXN33RaqjkK-128" value="&lt;b&gt;(0,n)&lt;/b&gt;" style="text;html=1;align=center;verticalAlign=middle;resizable=0;points=[];autosize=1;strokeColor=none;fillColor=none;rounded=0;" parent="1" vertex="1">
          <mxGeometry x="180" y="350" width="50" height="30" as="geometry" />
        </mxCell>
        <mxCell id="CVvclLkpXDXN33RaqjkK-129" value="&lt;b&gt;(0,n)&lt;/b&gt;" style="text;html=1;align=center;verticalAlign=middle;resizable=0;points=[];autosize=1;strokeColor=none;fillColor=none;rounded=0;" parent="1" vertex="1">
          <mxGeometry x="100" y="300" width="50" height="30" as="geometry" />
        </mxCell>
        <mxCell id="CVvclLkpXDXN33RaqjkK-130" value="&lt;b&gt;(0,n)&lt;/b&gt;" style="text;html=1;align=center;verticalAlign=middle;resizable=0;points=[];autosize=1;strokeColor=none;fillColor=none;rounded=0;" parent="1" vertex="1">
          <mxGeometry x="350" y="210" width="50" height="30" as="geometry" />
        </mxCell>
        <mxCell id="CVvclLkpXDXN33RaqjkK-131" value="&lt;b&gt;(0,n)&lt;/b&gt;" style="text;html=1;align=center;verticalAlign=middle;resizable=0;points=[];autosize=1;strokeColor=none;fillColor=none;rounded=0;" parent="1" vertex="1">
          <mxGeometry x="430" y="230" width="50" height="30" as="geometry" />
        </mxCell>
        <mxCell id="CVvclLkpXDXN33RaqjkK-132" value="&lt;b&gt;(0,n)&lt;/b&gt;" style="text;html=1;align=center;verticalAlign=middle;resizable=0;points=[];autosize=1;strokeColor=none;fillColor=none;rounded=0;" parent="1" vertex="1">
          <mxGeometry x="480" y="220" width="50" height="30" as="geometry" />
        </mxCell>
        <mxCell id="CVvclLkpXDXN33RaqjkK-133" value="&lt;b&gt;(1,1)&lt;/b&gt;" style="text;html=1;align=center;verticalAlign=middle;resizable=0;points=[];autosize=1;strokeColor=none;fillColor=none;rounded=0;" parent="1" vertex="1">
          <mxGeometry x="495" y="350" width="50" height="30" as="geometry" />
        </mxCell>
        <mxCell id="CVvclLkpXDXN33RaqjkK-134" value="&lt;b&gt;(1..1)&lt;/b&gt;" style="text;html=1;align=center;verticalAlign=middle;resizable=0;points=[];autosize=1;strokeColor=none;fillColor=none;rounded=0;" parent="1" vertex="1">
          <mxGeometry x="440" y="480" width="50" height="30" as="geometry" />
        </mxCell>
        <mxCell id="CVvclLkpXDXN33RaqjkK-135" value="&lt;b&gt;(1,n)&lt;/b&gt;" style="text;html=1;align=center;verticalAlign=middle;resizable=0;points=[];autosize=1;strokeColor=none;fillColor=none;rounded=0;" parent="1" vertex="1">
          <mxGeometry x="355" y="350" width="50" height="30" as="geometry" />
        </mxCell>
        <mxCell id="CVvclLkpXDXN33RaqjkK-136" value="&lt;b&gt;(1,n)&lt;/b&gt;" style="text;html=1;align=center;verticalAlign=middle;resizable=0;points=[];autosize=1;strokeColor=none;fillColor=none;rounded=0;" parent="1" vertex="1">
          <mxGeometry x="670" y="350" width="50" height="30" as="geometry" />
        </mxCell>
        <mxCell id="CVvclLkpXDXN33RaqjkK-137" value="&lt;b&gt;(1,1)&lt;/b&gt;" style="text;html=1;align=center;verticalAlign=middle;resizable=0;points=[];autosize=1;strokeColor=none;fillColor=none;rounded=0;" parent="1" vertex="1">
          <mxGeometry x="750" y="300" width="50" height="30" as="geometry" />
        </mxCell>
        <mxCell id="CVvclLkpXDXN33RaqjkK-138" value="&lt;b&gt;(1..1)&lt;/b&gt;" style="text;html=1;align=center;verticalAlign=middle;resizable=0;points=[];autosize=1;strokeColor=none;fillColor=none;rounded=0;" parent="1" vertex="1">
          <mxGeometry x="750" y="380" width="50" height="30" as="geometry" />
        </mxCell>
        <mxCell id="CVvclLkpXDXN33RaqjkK-139" value="&lt;b&gt;(1,n)&lt;/b&gt;" style="text;html=1;align=center;verticalAlign=middle;resizable=0;points=[];autosize=1;strokeColor=none;fillColor=none;rounded=0;" parent="1" vertex="1">
          <mxGeometry x="490" y="535" width="50" height="30" as="geometry" />
        </mxCell>
        <mxCell id="CVvclLkpXDXN33RaqjkK-141" value="" style="line;strokeWidth=2;html=1;rounded=0;" parent="1" vertex="1">
          <mxGeometry x="40" y="530" width="50" height="10" as="geometry" />
        </mxCell>
        <mxCell id="CVvclLkpXDXN33RaqjkK-143" value="" style="ellipse;whiteSpace=wrap;html=1;aspect=fixed;rounded=0;" parent="1" vertex="1">
          <mxGeometry x="30" y="530" width="10" height="10" as="geometry" />
        </mxCell>
        <mxCell id="CVvclLkpXDXN33RaqjkK-144" value="Work" style="text;html=1;align=center;verticalAlign=middle;resizable=0;points=[];autosize=1;strokeColor=none;fillColor=none;rounded=0;" parent="1" vertex="1">
          <mxGeometry x="-10" y="520" width="50" height="30" as="geometry" />
        </mxCell>
        <mxCell id="CVvclLkpXDXN33RaqjkK-145" value="" style="line;strokeWidth=2;html=1;rotation=90;rounded=0;" parent="1" vertex="1">
          <mxGeometry x="80" y="310" width="30" height="10" as="geometry" />
        </mxCell>
        <mxCell id="CVvclLkpXDXN33RaqjkK-154" value="" style="line;strokeWidth=2;html=1;rounded=0;" parent="1" vertex="1">
          <mxGeometry x="60" y="350" width="30" height="10" as="geometry" />
        </mxCell>
        <mxCell id="CVvclLkpXDXN33RaqjkK-155" value="" style="line;strokeWidth=2;html=1;rounded=0;" parent="1" vertex="1">
          <mxGeometry x="60" y="330" width="30" height="10" as="geometry" />
        </mxCell>
        <mxCell id="CVvclLkpXDXN33RaqjkK-157" value="" style="line;strokeWidth=2;html=1;rounded=0;" parent="1" vertex="1">
          <mxGeometry x="60" y="370" width="30" height="10" as="geometry" />
        </mxCell>
        <mxCell id="CVvclLkpXDXN33RaqjkK-160" value="" style="line;strokeWidth=2;html=1;rotation=90;rounded=0;" parent="1" vertex="1">
          <mxGeometry x="140" y="310" width="30" height="10" as="geometry" />
        </mxCell>
        <mxCell id="CVvclLkpXDXN33RaqjkK-162" value="" style="ellipse;whiteSpace=wrap;html=1;aspect=fixed;rounded=0;" parent="1" vertex="1">
          <mxGeometry x="50" y="370" width="10" height="10" as="geometry" />
        </mxCell>
        <mxCell id="CVvclLkpXDXN33RaqjkK-163" value="" style="ellipse;whiteSpace=wrap;html=1;aspect=fixed;rounded=0;" parent="1" vertex="1">
          <mxGeometry x="50" y="350" width="10" height="10" as="geometry" />
        </mxCell>
        <mxCell id="CVvclLkpXDXN33RaqjkK-164" value="" style="ellipse;whiteSpace=wrap;html=1;aspect=fixed;rounded=0;" parent="1" vertex="1">
          <mxGeometry x="50" y="330" width="10" height="10" as="geometry" />
        </mxCell>
        <mxCell id="CVvclLkpXDXN33RaqjkK-165" value="" style="ellipse;whiteSpace=wrap;html=1;aspect=fixed;rounded=0;" parent="1" vertex="1">
          <mxGeometry x="150" y="290" width="10" height="10" as="geometry" />
        </mxCell>
        <mxCell id="CVvclLkpXDXN33RaqjkK-166" value="" style="ellipse;whiteSpace=wrap;html=1;aspect=fixed;fillColor=#000000;rounded=0;" parent="1" vertex="1">
          <mxGeometry x="90" y="290" width="10" height="10" as="geometry" />
        </mxCell>
        <mxCell id="CVvclLkpXDXN33RaqjkK-167" value="FirstName" style="text;html=1;align=center;verticalAlign=middle;resizable=0;points=[];autosize=1;strokeColor=none;fillColor=none;rounded=0;" parent="1" vertex="1">
          <mxGeometry x="-20" y="318" width="80" height="30" as="geometry" />
        </mxCell>
        <mxCell id="CVvclLkpXDXN33RaqjkK-168" value="LastName" style="text;html=1;align=center;verticalAlign=middle;resizable=0;points=[];autosize=1;strokeColor=none;fillColor=none;rounded=0;" parent="1" vertex="1">
          <mxGeometry x="-20" y="338" width="80" height="30" as="geometry" />
        </mxCell>
        <mxCell id="CVvclLkpXDXN33RaqjkK-169" value="DateOfBirth" style="text;html=1;align=center;verticalAlign=middle;resizable=0;points=[];autosize=1;strokeColor=none;fillColor=none;rounded=0;" parent="1" vertex="1">
          <mxGeometry x="-30" y="360" width="90" height="30" as="geometry" />
        </mxCell>
        <mxCell id="CVvclLkpXDXN33RaqjkK-170" value="&lt;b&gt;StudentId&lt;/b&gt;" style="text;html=1;align=center;verticalAlign=middle;resizable=0;points=[];autosize=1;strokeColor=none;fillColor=none;rounded=0;" parent="1" vertex="1">
          <mxGeometry x="35" y="260" width="80" height="30" as="geometry" />
        </mxCell>
        <mxCell id="CVvclLkpXDXN33RaqjkK-172" value="" style="line;strokeWidth=2;html=1;rotation=90;rounded=0;" parent="1" vertex="1">
          <mxGeometry x="170" y="310" width="30" height="10" as="geometry" />
        </mxCell>
        <mxCell id="CVvclLkpXDXN33RaqjkK-174" value="" style="ellipse;whiteSpace=wrap;html=1;aspect=fixed;rounded=0;" parent="1" vertex="1">
          <mxGeometry x="180" y="290" width="10" height="10" as="geometry" />
        </mxCell>
        <mxCell id="CVvclLkpXDXN33RaqjkK-176" value="Email" style="text;html=1;align=center;verticalAlign=middle;resizable=0;points=[];autosize=1;strokeColor=none;fillColor=none;rotation=90;rounded=0;" parent="1" vertex="1">
          <mxGeometry x="130" y="250" width="50" height="30" as="geometry" />
        </mxCell>
        <mxCell id="CVvclLkpXDXN33RaqjkK-177" value="Level" style="text;html=1;align=center;verticalAlign=middle;resizable=0;points=[];autosize=1;strokeColor=none;fillColor=none;rotation=90;rounded=0;" parent="1" vertex="1">
          <mxGeometry x="160" y="250" width="50" height="30" as="geometry" />
        </mxCell>
        <mxCell id="CVvclLkpXDXN33RaqjkK-182" value="" style="line;strokeWidth=2;html=1;rounded=0;" parent="1" vertex="1">
          <mxGeometry x="370" y="530" width="30" height="10" as="geometry" />
        </mxCell>
        <mxCell id="CVvclLkpXDXN33RaqjkK-183" value="" style="line;strokeWidth=2;html=1;rounded=0;" parent="1" vertex="1">
          <mxGeometry x="370" y="550" width="30" height="10" as="geometry" />
        </mxCell>
        <mxCell id="CVvclLkpXDXN33RaqjkK-186" value="" style="ellipse;whiteSpace=wrap;html=1;aspect=fixed;rounded=0;" parent="1" vertex="1">
          <mxGeometry x="360" y="530" width="10" height="10" as="geometry" />
        </mxCell>
        <mxCell id="CVvclLkpXDXN33RaqjkK-187" value="" style="ellipse;whiteSpace=wrap;html=1;aspect=fixed;rounded=0;" parent="1" vertex="1">
          <mxGeometry x="360" y="550" width="10" height="10" as="geometry" />
        </mxCell>
        <mxCell id="CVvclLkpXDXN33RaqjkK-189" value="RoomNr" style="text;html=1;align=center;verticalAlign=middle;resizable=0;points=[];autosize=1;strokeColor=none;fillColor=none;rounded=0;" parent="1" vertex="1">
          <mxGeometry x="300" y="520" width="70" height="30" as="geometry" />
        </mxCell>
        <mxCell id="CVvclLkpXDXN33RaqjkK-190" value="Building" style="text;html=1;align=center;verticalAlign=middle;resizable=0;points=[];autosize=1;strokeColor=none;fillColor=none;rounded=0;" parent="1" vertex="1">
          <mxGeometry x="297.5" y="540" width="70" height="30" as="geometry" />
        </mxCell>
        <mxCell id="CVvclLkpXDXN33RaqjkK-191" value="Capacity" style="text;html=1;align=center;verticalAlign=middle;resizable=0;points=[];autosize=1;strokeColor=none;fillColor=none;rounded=0;" parent="1" vertex="1">
          <mxGeometry x="372.2" y="450" width="70" height="30" as="geometry" />
        </mxCell>
        <mxCell id="CVvclLkpXDXN33RaqjkK-194" value="" style="line;strokeWidth=2;html=1;rotation=90;rounded=0;" parent="1" vertex="1">
          <mxGeometry x="780" y="310" width="30" height="10" as="geometry" />
        </mxCell>
        <mxCell id="CVvclLkpXDXN33RaqjkK-195" value="" style="line;strokeWidth=2;html=1;rounded=0;" parent="1" vertex="1">
          <mxGeometry x="810" y="348" width="30" height="10" as="geometry" />
        </mxCell>
        <mxCell id="CVvclLkpXDXN33RaqjkK-197" value="" style="ellipse;whiteSpace=wrap;html=1;aspect=fixed;rounded=0;" parent="1" vertex="1">
          <mxGeometry x="790" y="290" width="10" height="10" as="geometry" />
        </mxCell>
        <mxCell id="CVvclLkpXDXN33RaqjkK-198" value="&lt;b&gt;SubjectID&lt;/b&gt;" style="text;html=1;align=center;verticalAlign=middle;resizable=0;points=[];autosize=1;strokeColor=none;fillColor=none;rounded=0;" parent="1" vertex="1">
          <mxGeometry x="840" y="338" width="80" height="30" as="geometry" />
        </mxCell>
        <mxCell id="CVvclLkpXDXN33RaqjkK-199" value="SubjectName" style="text;html=1;align=center;verticalAlign=middle;resizable=0;points=[];autosize=1;strokeColor=none;fillColor=none;rounded=0;" parent="1" vertex="1">
          <mxGeometry x="780" y="260" width="100" height="30" as="geometry" />
        </mxCell>
        <mxCell id="CVvclLkpXDXN33RaqjkK-200" value="" style="line;strokeWidth=2;html=1;rotation=90;rounded=0;" parent="1" vertex="1">
          <mxGeometry x="505" y="-10" width="30" height="10" as="geometry" />
        </mxCell>
        <mxCell id="CVvclLkpXDXN33RaqjkK-201" value="" style="line;strokeWidth=2;html=1;rotation=90;rounded=0;" parent="1" vertex="1">
          <mxGeometry x="345" y="-10" width="30" height="10" as="geometry" />
        </mxCell>
        <mxCell id="CVvclLkpXDXN33RaqjkK-202" value="" style="ellipse;whiteSpace=wrap;html=1;aspect=fixed;rounded=0;" parent="1" vertex="1">
          <mxGeometry x="355" y="-30" width="10" height="10" as="geometry" />
        </mxCell>
        <mxCell id="CVvclLkpXDXN33RaqjkK-203" value="" style="ellipse;whiteSpace=wrap;html=1;aspect=fixed;rounded=0;" parent="1" vertex="1">
          <mxGeometry x="355" y="-30" width="10" height="10" as="geometry" />
        </mxCell>
        <mxCell id="CVvclLkpXDXN33RaqjkK-204" value="" style="ellipse;whiteSpace=wrap;html=1;aspect=fixed;rounded=0;" parent="1" vertex="1">
          <mxGeometry x="515" y="-30" width="10" height="10" as="geometry" />
        </mxCell>
        <mxCell id="CVvclLkpXDXN33RaqjkK-205" value="Department" style="text;html=1;align=center;verticalAlign=middle;resizable=0;points=[];autosize=1;strokeColor=none;fillColor=none;rounded=0;" parent="1" vertex="1">
          <mxGeometry x="265" y="-40" width="90" height="30" as="geometry" />
        </mxCell>
        <mxCell id="CVvclLkpXDXN33RaqjkK-206" value="Affiliation" style="text;html=1;align=center;verticalAlign=middle;resizable=0;points=[];autosize=1;strokeColor=none;fillColor=none;rounded=0;" parent="1" vertex="1">
          <mxGeometry x="520" y="-40" width="70" height="30" as="geometry" />
        </mxCell>
        <mxCell id="CVvclLkpXDXN33RaqjkK-207" value="" style="line;strokeWidth=2;html=1;rotation=90;rounded=0;" parent="1" vertex="1">
          <mxGeometry x="377.82" y="167.81" width="34.38" height="10" as="geometry" />
        </mxCell>
        <mxCell id="CVvclLkpXDXN33RaqjkK-208" value="" style="line;strokeWidth=2;html=1;rotation=90;rounded=0;" parent="1" vertex="1">
          <mxGeometry x="405" y="170" width="30" height="10" as="geometry" />
        </mxCell>
        <mxCell id="CVvclLkpXDXN33RaqjkK-209" value="" style="line;strokeWidth=2;html=1;rotation=90;rounded=0;" parent="1" vertex="1">
          <mxGeometry x="435" y="170" width="30" height="10" as="geometry" />
        </mxCell>
        <mxCell id="CVvclLkpXDXN33RaqjkK-210" value="" style="line;strokeWidth=2;html=1;rotation=90;rounded=0;" parent="1" vertex="1">
          <mxGeometry x="462.5" y="170" width="30" height="10" as="geometry" />
        </mxCell>
        <mxCell id="CVvclLkpXDXN33RaqjkK-212" value="" style="ellipse;shape=doubleEllipse;whiteSpace=wrap;html=1;aspect=fixed;fillColor=#000000;direction=south;rounded=0;" parent="1" vertex="1">
          <mxGeometry x="390" y="150" width="10" height="10" as="geometry" />
        </mxCell>
        <mxCell id="CVvclLkpXDXN33RaqjkK-213" value="" style="ellipse;whiteSpace=wrap;html=1;aspect=fixed;rounded=0;" parent="1" vertex="1">
          <mxGeometry x="415" y="150" width="10" height="10" as="geometry" />
        </mxCell>
        <mxCell id="CVvclLkpXDXN33RaqjkK-214" value="" style="ellipse;whiteSpace=wrap;html=1;aspect=fixed;rounded=0;" parent="1" vertex="1">
          <mxGeometry x="445" y="150" width="10" height="10" as="geometry" />
        </mxCell>
        <mxCell id="CVvclLkpXDXN33RaqjkK-217" value="" style="ellipse;whiteSpace=wrap;html=1;aspect=fixed;rounded=0;" parent="1" vertex="1">
          <mxGeometry x="472.5" y="150" width="10" height="10" as="geometry" />
        </mxCell>
        <mxCell id="CVvclLkpXDXN33RaqjkK-218" value="&lt;b&gt;ProfessorID&lt;/b&gt;" style="text;html=1;align=center;verticalAlign=middle;resizable=0;points=[];autosize=1;strokeColor=none;fillColor=none;rotation=90;rounded=0;" parent="1" vertex="1">
          <mxGeometry x="350.01" y="100" width="90" height="30" as="geometry" />
        </mxCell>
        <mxCell id="CVvclLkpXDXN33RaqjkK-220" value="FirstName" style="text;html=1;align=center;verticalAlign=middle;resizable=0;points=[];autosize=1;strokeColor=none;fillColor=none;rotation=90;rounded=0;" parent="1" vertex="1">
          <mxGeometry x="382.5" y="100" width="80" height="30" as="geometry" />
        </mxCell>
        <mxCell id="CVvclLkpXDXN33RaqjkK-222" value="LastName" style="text;html=1;align=center;verticalAlign=middle;resizable=0;points=[];autosize=1;strokeColor=none;fillColor=none;rotation=90;rounded=0;" parent="1" vertex="1">
          <mxGeometry x="410" y="100" width="80" height="30" as="geometry" />
        </mxCell>
        <mxCell id="CVvclLkpXDXN33RaqjkK-224" value="Email" style="text;html=1;align=center;verticalAlign=middle;resizable=0;points=[];autosize=1;strokeColor=none;fillColor=none;rotation=90;rounded=0;" parent="1" vertex="1">
          <mxGeometry x="455" y="110" width="50" height="30" as="geometry" />
        </mxCell>
        <mxCell id="CVvclLkpXDXN33RaqjkK-226" value="" style="line;strokeWidth=2;html=1;rotation=90;rounded=0;" parent="1" vertex="1">
          <mxGeometry x="395" y="312.5" width="25" height="10" as="geometry" />
        </mxCell>
        <mxCell id="CVvclLkpXDXN33RaqjkK-227" value="" style="line;strokeWidth=2;html=1;rotation=90;rounded=0;" parent="1" vertex="1">
          <mxGeometry x="462.5" y="312.5" width="25" height="10" as="geometry" />
        </mxCell>
        <mxCell id="CVvclLkpXDXN33RaqjkK-229" value="" style="ellipse;whiteSpace=wrap;html=1;aspect=fixed;fillColor=#000000;rounded=0;" parent="1" vertex="1">
          <mxGeometry x="402.2" y="300" width="10" height="10" as="geometry" />
        </mxCell>
        <mxCell id="CVvclLkpXDXN33RaqjkK-230" value="&lt;b&gt;ExamID&lt;/b&gt;" style="text;html=1;align=center;verticalAlign=middle;resizable=0;points=[];autosize=1;strokeColor=none;fillColor=none;rounded=0;" parent="1" vertex="1">
          <mxGeometry x="342.2" y="290" width="70" height="30" as="geometry" />
        </mxCell>
        <mxCell id="CVvclLkpXDXN33RaqjkK-232" value="" style="ellipse;whiteSpace=wrap;html=1;aspect=fixed;rounded=0;" parent="1" vertex="1">
          <mxGeometry x="470" y="300" width="10" height="10" as="geometry" />
        </mxCell>
        <mxCell id="CVvclLkpXDXN33RaqjkK-234" value="ExamDate" style="text;html=1;align=center;verticalAlign=middle;resizable=0;points=[];autosize=1;strokeColor=none;fillColor=none;rounded=0;" parent="1" vertex="1">
          <mxGeometry x="470" y="290" width="80" height="30" as="geometry" />
        </mxCell>
        <mxCell id="CVvclLkpXDXN33RaqjkK-235" value="" style="line;strokeWidth=2;html=1;rounded=0;" parent="1" vertex="1">
          <mxGeometry x="330" y="80" width="42.2" height="10" as="geometry" />
        </mxCell>
        <mxCell id="CVvclLkpXDXN33RaqjkK-236" value="" style="line;strokeWidth=2;html=1;rotation=90;rounded=0;" parent="1" vertex="1">
          <mxGeometry x="317.5" y="67.5" width="25" height="10" as="geometry" />
        </mxCell>
        <mxCell id="CVvclLkpXDXN33RaqjkK-237" value="" style="line;strokeWidth=2;html=1;rounded=0;" parent="1" vertex="1">
          <mxGeometry x="495" y="80" width="55" height="10" as="geometry" />
        </mxCell>
        <mxCell id="CVvclLkpXDXN33RaqjkK-238" value="" style="line;strokeWidth=2;html=1;rotation=90;rounded=0;" parent="1" vertex="1">
          <mxGeometry x="537.5" y="67.5" width="25" height="10" as="geometry" />
        </mxCell>
        <mxCell id="CVvclLkpXDXN33RaqjkK-239" value="" style="ellipse;whiteSpace=wrap;html=1;aspect=fixed;fillColor=#000000;rounded=0;" parent="1" vertex="1">
          <mxGeometry x="170" y="500" width="10" height="10" as="geometry" />
        </mxCell>
        <mxCell id="CVvclLkpXDXN33RaqjkK-240" value="" style="line;strokeWidth=2;html=1;rounded=0;" parent="1" vertex="1">
          <mxGeometry x="120" y="500" width="50" height="10" as="geometry" />
        </mxCell>
        <mxCell id="CVvclLkpXDXN33RaqjkK-241" value="" style="line;strokeWidth=2;html=1;rotation=90;rounded=0;" parent="1" vertex="1">
          <mxGeometry x="110" y="512.5" width="25" height="10" as="geometry" />
        </mxCell>
        <mxCell id="CVvclLkpXDXN33RaqjkK-243" value="" style="line;strokeWidth=2;html=1;rotation=90;rounded=0;" parent="1" vertex="1">
          <mxGeometry x="710" y="170" width="30" height="10" as="geometry" />
        </mxCell>
        <mxCell id="CVvclLkpXDXN33RaqjkK-244" value="" style="ellipse;shape=doubleEllipse;whiteSpace=wrap;html=1;aspect=fixed;fillColor=#000000;rounded=0;" parent="1" vertex="1">
          <mxGeometry x="720" y="150" width="10" height="10" as="geometry" />
        </mxCell>
        <mxCell id="CVvclLkpXDXN33RaqjkK-245" value="&lt;b&gt;number&lt;/b&gt;" style="text;html=1;align=center;verticalAlign=middle;resizable=0;points=[];autosize=1;strokeColor=none;fillColor=none;rounded=0;" parent="1" vertex="1">
          <mxGeometry x="730" y="137.81" width="70" height="30" as="geometry" />
        </mxCell>
        <mxCell id="reeWS0fUc-oPtJDB1k0_-3" value="" style="line;strokeWidth=2;html=1;rotation=90;rounded=0;" parent="1" vertex="1">
          <mxGeometry x="110" y="465" width="25" height="10" as="geometry" />
        </mxCell>
        <mxCell id="reeWS0fUc-oPtJDB1k0_-4" value="" style="line;strokeWidth=2;html=1;rounded=0;" parent="1" vertex="1">
          <mxGeometry x="120" y="475" width="50" height="10" as="geometry" />
        </mxCell>
        <mxCell id="reeWS0fUc-oPtJDB1k0_-6" value="" style="endArrow=none;html=1;rounded=0;" parent="1" target="reeWS0fUc-oPtJDB1k0_-5" edge="1">
          <mxGeometry width="50" height="50" relative="1" as="geometry">
            <mxPoint x="171.46446609406712" y="478.5355339059329" as="sourcePoint" />
            <mxPoint x="170" y="480" as="targetPoint" />
          </mxGeometry>
        </mxCell>
        <mxCell id="reeWS0fUc-oPtJDB1k0_-5" value="" style="ellipse;whiteSpace=wrap;html=1;aspect=fixed;fillColor=#000000;rounded=0;" parent="1" vertex="1">
          <mxGeometry x="170" y="475" width="10" height="10" as="geometry" />
        </mxCell>
        <mxCell id="reeWS0fUc-oPtJDB1k0_-7" value="" style="line;strokeWidth=2;html=1;rotation=90;rounded=0;" parent="1" vertex="1">
          <mxGeometry x="110" y="420" width="25" height="10" as="geometry" />
        </mxCell>
        <mxCell id="reeWS0fUc-oPtJDB1k0_-8" value="" style="line;strokeWidth=2;html=1;rounded=0;" parent="1" vertex="1">
          <mxGeometry x="120" y="410" width="50" height="10" as="geometry" />
        </mxCell>
        <mxCell id="reeWS0fUc-oPtJDB1k0_-9" value="" style="ellipse;whiteSpace=wrap;html=1;aspect=fixed;fillColor=#000000;rounded=0;" parent="1" vertex="1">
          <mxGeometry x="170" y="410" width="10" height="10" as="geometry" />
        </mxCell>
        <mxCell id="reeWS0fUc-oPtJDB1k0_-11" value="" style="line;strokeWidth=2;html=1;rotation=90;rounded=0;" parent="1" vertex="1">
          <mxGeometry x="530" y="110" width="25" height="10" as="geometry" />
        </mxCell>
        <mxCell id="reeWS0fUc-oPtJDB1k0_-12" value="" style="line;strokeWidth=2;html=1;rounded=0;" parent="1" vertex="1">
          <mxGeometry x="490" y="90" width="55" height="20" as="geometry" />
        </mxCell>
        <mxCell id="reeWS0fUc-oPtJDB1k0_-13" value="" style="ellipse;whiteSpace=wrap;html=1;aspect=fixed;fillColor=#000000;rounded=0;" parent="1" vertex="1">
          <mxGeometry x="485" y="95" width="10" height="10" as="geometry" />
        </mxCell>
        <mxCell id="reeWS0fUc-oPtJDB1k0_-14" value="" style="line;strokeWidth=2;html=1;rotation=90;rounded=0;" parent="1" vertex="1">
          <mxGeometry x="530" y="150" width="25" height="10" as="geometry" />
        </mxCell>
        <mxCell id="reeWS0fUc-oPtJDB1k0_-15" value="" style="line;strokeWidth=2;html=1;rounded=0;" parent="1" vertex="1">
          <mxGeometry x="487.5" y="157.81" width="55" height="20" as="geometry" />
        </mxCell>
        <mxCell id="reeWS0fUc-oPtJDB1k0_-16" value="" style="ellipse;whiteSpace=wrap;html=1;aspect=fixed;fillColor=#000000;rounded=0;" parent="1" vertex="1">
          <mxGeometry x="485" y="160" width="10" height="10" as="geometry" />
        </mxCell>
        <mxCell id="reeWS0fUc-oPtJDB1k0_-17" value="" style="line;strokeWidth=2;html=1;rotation=90;rounded=0;" parent="1" vertex="1">
          <mxGeometry x="325" y="110" width="25" height="10" as="geometry" />
        </mxCell>
        <mxCell id="reeWS0fUc-oPtJDB1k0_-18" value="" style="line;strokeWidth=2;html=1;rotation=90;rounded=0;" parent="1" vertex="1">
          <mxGeometry x="325.01" y="150" width="25" height="10" as="geometry" />
        </mxCell>
        <mxCell id="reeWS0fUc-oPtJDB1k0_-19" value="" style="line;strokeWidth=2;html=1;rounded=0;" parent="1" vertex="1">
          <mxGeometry x="337.5" y="95" width="42.5" height="20" as="geometry" />
        </mxCell>
        <mxCell id="reeWS0fUc-oPtJDB1k0_-20" value="" style="line;strokeWidth=2;html=1;rounded=0;" parent="1" vertex="1">
          <mxGeometry x="335.32" y="155" width="42.5" height="20" as="geometry" />
        </mxCell>
        <mxCell id="reeWS0fUc-oPtJDB1k0_-21" value="" style="ellipse;whiteSpace=wrap;html=1;aspect=fixed;fillColor=#000000;rounded=0;" parent="1" vertex="1">
          <mxGeometry x="375" y="100" width="10" height="10" as="geometry" />
        </mxCell>
        <mxCell id="reeWS0fUc-oPtJDB1k0_-22" value="" style="ellipse;whiteSpace=wrap;html=1;aspect=fixed;fillColor=#000000;rounded=0;" parent="1" vertex="1">
          <mxGeometry x="375" y="157.81" width="10" height="10" as="geometry" />
        </mxCell>
        <mxCell id="AjlDCTYBXcKB48ADr7gQ-1" value="&lt;b&gt;(1,1)&lt;/b&gt;" style="text;html=1;align=center;verticalAlign=middle;resizable=0;points=[];autosize=1;strokeColor=none;fillColor=none;rounded=0;" vertex="1" parent="1">
          <mxGeometry x="430" y="308" width="50" height="30" as="geometry" />
        </mxCell>
        <mxCell id="AjlDCTYBXcKB48ADr7gQ-2" value="&lt;b&gt;(1,1)&lt;/b&gt;" style="text;html=1;align=center;verticalAlign=middle;resizable=0;points=[];autosize=1;strokeColor=none;fillColor=none;rounded=0;" vertex="1" parent="1">
          <mxGeometry x="440" y="380" width="50" height="30" as="geometry" />
        </mxCell>
        <mxCell id="AjlDCTYBXcKB48ADr7gQ-3" value="&lt;b&gt;(1,n)&lt;/b&gt;" style="text;html=1;align=center;verticalAlign=middle;resizable=0;points=[];autosize=1;strokeColor=none;fillColor=none;rounded=0;" vertex="1" parent="1">
          <mxGeometry x="670" y="210" width="50" height="30" as="geometry" />
        </mxCell>
        <mxCell id="AjlDCTYBXcKB48ADr7gQ-4" value="&lt;b&gt;(1,n)&lt;/b&gt;" style="text;html=1;align=center;verticalAlign=middle;resizable=0;points=[];autosize=1;strokeColor=none;fillColor=none;rounded=0;" vertex="1" parent="1">
          <mxGeometry x="512.5" y="210" width="50" height="30" as="geometry" />
        </mxCell>
        <mxCell id="AjlDCTYBXcKB48ADr7gQ-9" value="" style="line;strokeWidth=2;html=1;rotation=-180;rounded=0;" vertex="1" parent="1">
          <mxGeometry x="500" y="338" width="30" height="10" as="geometry" />
        </mxCell>
        <mxCell id="AjlDCTYBXcKB48ADr7gQ-10" value="" style="line;strokeWidth=2;html=1;rotation=0;rounded=0;" vertex="1" parent="1">
          <mxGeometry x="370" y="338" width="30" height="10" as="geometry" />
        </mxCell>
        <mxCell id="AjlDCTYBXcKB48ADr7gQ-11" value="" style="ellipse;whiteSpace=wrap;html=1;aspect=fixed;rounded=0;" vertex="1" parent="1">
          <mxGeometry x="360" y="338" width="10" height="10" as="geometry" />
        </mxCell>
        <mxCell id="AjlDCTYBXcKB48ADr7gQ-12" value="" style="ellipse;whiteSpace=wrap;html=1;aspect=fixed;rounded=0;" vertex="1" parent="1">
          <mxGeometry x="527.5" y="338" width="10" height="10" as="geometry" />
        </mxCell>
        <mxCell id="AjlDCTYBXcKB48ADr7gQ-13" value="ExamStartTime" style="text;html=1;align=center;verticalAlign=middle;resizable=0;points=[];autosize=1;strokeColor=none;fillColor=none;rounded=0;" vertex="1" parent="1">
          <mxGeometry x="290" y="310" width="110" height="30" as="geometry" />
        </mxCell>
        <mxCell id="AjlDCTYBXcKB48ADr7gQ-14" value="ExamEndTime" style="text;html=1;align=center;verticalAlign=middle;resizable=0;points=[];autosize=1;strokeColor=none;fillColor=none;rounded=0;" vertex="1" parent="1">
          <mxGeometry x="500" y="310" width="100" height="30" as="geometry" />
        </mxCell>
        <mxCell id="AjlDCTYBXcKB48ADr7gQ-15" value="" style="line;strokeWidth=2;html=1;rotation=90;rounded=0;" vertex="1" parent="1">
          <mxGeometry x="420" y="490" width="30" height="10" as="geometry" />
        </mxCell>
        <mxCell id="AjlDCTYBXcKB48ADr7gQ-17" value="" style="ellipse;whiteSpace=wrap;html=1;aspect=fixed;rounded=0;" vertex="1" parent="1">
          <mxGeometry x="430" y="475" width="10" height="10" as="geometry" />
        </mxCell>
        <mxCell id="AjlDCTYBXcKB48ADr7gQ-19" value="" style="line;strokeWidth=2;html=1;rotation=90;rounded=0;" vertex="1" parent="1">
          <mxGeometry x="400" y="492.5" width="25" height="10" as="geometry" />
        </mxCell>
        <mxCell id="AjlDCTYBXcKB48ADr7gQ-21" value="" style="line;strokeWidth=2;html=1;rounded=0;" vertex="1" parent="1">
          <mxGeometry x="380" y="480" width="32.2" height="10" as="geometry" />
        </mxCell>
        <mxCell id="AjlDCTYBXcKB48ADr7gQ-22" value="" style="line;strokeWidth=2;html=1;rotation=90;rounded=0;" vertex="1" parent="1">
          <mxGeometry x="330" y="530" width="100" height="10" as="geometry" />
        </mxCell>
        <mxCell id="AjlDCTYBXcKB48ADr7gQ-23" value="" style="ellipse;whiteSpace=wrap;html=1;aspect=fixed;fillColor=#000000;rounded=0;" vertex="1" parent="1">
          <mxGeometry x="375" y="580" width="10" height="10" as="geometry" />
        </mxCell>
        <mxCell id="AjlDCTYBXcKB48ADr7gQ-28" value="" style="ellipse;whiteSpace=wrap;html=1;aspect=fixed;rounded=0;" vertex="1" parent="1">
          <mxGeometry x="840" y="368" width="10" height="10" as="geometry" />
        </mxCell>
        <mxCell id="AjlDCTYBXcKB48ADr7gQ-29" value="" style="ellipse;whiteSpace=wrap;html=1;aspect=fixed;rounded=0;" vertex="1" parent="1">
          <mxGeometry x="840" y="348" width="10" height="10" as="geometry" />
        </mxCell>
        <mxCell id="AjlDCTYBXcKB48ADr7gQ-31" value="" style="line;strokeWidth=2;html=1;rounded=0;" vertex="1" parent="1">
          <mxGeometry x="810" y="368" width="30" height="10" as="geometry" />
        </mxCell>
        <mxCell id="AjlDCTYBXcKB48ADr7gQ-33" value="&lt;b&gt;ProfessorID&lt;/b&gt;" style="text;html=1;align=center;verticalAlign=middle;resizable=0;points=[];autosize=1;strokeColor=none;fillColor=none;rounded=0;" vertex="1" parent="1">
          <mxGeometry x="850" y="358" width="90" height="30" as="geometry" />
        </mxCell>
        <mxCell id="AjlDCTYBXcKB48ADr7gQ-35" value="" style="line;strokeWidth=2;html=1;rotation=90;rounded=0;" vertex="1" parent="1">
          <mxGeometry x="782.5" y="387.5" width="25" height="10" as="geometry" />
        </mxCell>
        <mxCell id="AjlDCTYBXcKB48ADr7gQ-36" value="" style="line;strokeWidth=2;html=1;rounded=0;" vertex="1" parent="1">
          <mxGeometry x="795" y="400" width="25" height="10" as="geometry" />
        </mxCell>
        <mxCell id="AjlDCTYBXcKB48ADr7gQ-38" value="" style="line;strokeWidth=2;html=1;rotation=90;rounded=0;" vertex="1" parent="1">
          <mxGeometry x="785" y="365" width="70" height="10" as="geometry" />
        </mxCell>
        <mxCell id="AjlDCTYBXcKB48ADr7gQ-40" value="" style="ellipse;shape=doubleEllipse;whiteSpace=wrap;html=1;aspect=fixed;fillColor=#000000;rounded=0;" vertex="1" parent="1">
          <mxGeometry x="815" y="328" width="10" height="10" as="geometry" />
        </mxCell>
      </root>
    </mxGraphModel>
  </diagram>
</mxfile>
